<svg xmlns="http://www.w3.org/2000/svg" xmlns:xlink="http://www.w3.org/1999/xlink" width="246" zoomAndPan="magnify" viewBox="0 0 184.5 221.249992" height="295" preserveAspectRatio="xMidYMid meet" version="1.0"><defs><g/><clipPath id="c8a0a640f7"><path d="M 0.0625 0 L 183.9375 0 L 183.9375 220.503906 L 0.0625 220.503906 Z M 0.0625 0 " clip-rule="nonzero"/></clipPath><clipPath id="d9ab55f4b5"><path d="M 18.570312 16.710938 L 165.074219 16.710938 L 165.074219 99.679688 L 18.570312 99.679688 Z M 18.570312 16.710938 " clip-rule="nonzero"/></clipPath><clipPath id="a335d9cc27"><path d="M 18.570312 122.109375 L 165.074219 122.109375 L 165.074219 208.445312 L 18.570312 208.445312 Z M 18.570312 122.109375 " clip-rule="nonzero"/></clipPath><clipPath id="0ca0afebb9"><path d="M 0.0625 0 L 108 0 L 108 103 L 0.0625 103 Z M 0.0625 0 " clip-rule="nonzero"/></clipPath><clipPath id="c7c81ac2e1"><path d="M 76 117 L 183.9375 117 L 183.9375 220.503906 L 76 220.503906 Z M 76 117 " clip-rule="nonzero"/></clipPath></defs><g clip-path="url(#c8a0a640f7)"><path fill="#ffffff" d="M 0.0625 0 L 183.9375 0 L 183.9375 220.503906 L 0.0625 220.503906 Z M 0.0625 0 " fill-opacity="1" fill-rule="nonzero"/></g><g clip-path="url(#d9ab55f4b5)"><path fill="#000000" d="M 89.289062 77.5 L 77.585938 89.203125 L 144.578125 156.191406 L 91.652344 209.019531 L 34.679688 152.046875 L 43.746094 142.980469 L 91.652344 190.882812 L 126.214844 156.320312 L 115.484375 145.589844 L 94.839844 166.234375 L 94.703125 166.097656 L 94.578125 166.222656 L 18.660156 90.300781 L 27.730469 81.234375 L 94.71875 148.222656 L 106.421875 136.519531 L 39.429688 69.535156 L 92.355469 16.710938 L 149.328125 73.683594 L 140.261719 82.75 L 92.355469 34.84375 L 57.792969 69.40625 L 68.523438 80.136719 L 89.167969 59.492188 L 89.304688 59.628906 L 89.429688 59.503906 L 165.351562 135.421875 L 156.28125 144.492188 Z M 89.289062 77.5 " fill-opacity="1" fill-rule="nonzero"/></g><g clip-path="url(#a335d9cc27)"><path fill="#000000" d="M 89.289062 77.136719 L 77.585938 88.839844 L 144.578125 155.828125 L 91.652344 208.65625 L 34.679688 151.683594 L 43.746094 142.617188 L 91.652344 190.519531 L 126.214844 155.957031 L 115.484375 145.226562 L 94.839844 165.871094 L 94.703125 165.734375 L 94.578125 165.859375 L 18.660156 89.9375 L 27.730469 80.871094 L 94.71875 147.859375 L 106.421875 136.15625 L 39.429688 69.171875 L 92.355469 16.347656 L 149.328125 73.320312 L 140.261719 82.386719 L 92.355469 34.480469 L 57.792969 69.042969 L 68.523438 79.773438 L 89.167969 59.128906 L 89.304688 59.265625 L 89.429688 59.140625 L 165.351562 135.058594 L 156.28125 144.128906 Z M 89.289062 77.136719 " fill-opacity="1" fill-rule="nonzero"/></g><g fill="#000000" fill-opacity="1"><g transform="translate(49.362653, 115.589035)"><g><path d="M 5.03125 0.21875 C 4.132812 0.21875 3.257812 0.109375 2.40625 -0.109375 C 1.550781 -0.335938 0.859375 -0.632812 0.328125 -1 L 1.375 -3.328125 C 1.875 -3.003906 2.453125 -2.738281 3.109375 -2.53125 C 3.765625 -2.332031 4.410156 -2.234375 5.046875 -2.234375 C 6.265625 -2.234375 6.875 -2.535156 6.875 -3.140625 C 6.875 -3.460938 6.695312 -3.695312 6.34375 -3.84375 C 6 -4 5.445312 -4.160156 4.6875 -4.328125 C 3.84375 -4.515625 3.140625 -4.710938 2.578125 -4.921875 C 2.015625 -5.128906 1.53125 -5.457031 1.125 -5.90625 C 0.726562 -6.363281 0.53125 -6.984375 0.53125 -7.765625 C 0.53125 -8.441406 0.710938 -9.050781 1.078125 -9.59375 C 1.453125 -10.144531 2.007812 -10.578125 2.75 -10.890625 C 3.488281 -11.210938 4.394531 -11.375 5.46875 -11.375 C 6.195312 -11.375 6.914062 -11.289062 7.625 -11.125 C 8.34375 -10.96875 8.972656 -10.726562 9.515625 -10.40625 L 8.546875 -8.0625 C 7.484375 -8.632812 6.453125 -8.921875 5.453125 -8.921875 C 4.828125 -8.921875 4.367188 -8.828125 4.078125 -8.640625 C 3.796875 -8.460938 3.65625 -8.222656 3.65625 -7.921875 C 3.65625 -7.617188 3.820312 -7.394531 4.15625 -7.25 C 4.5 -7.101562 5.046875 -6.953125 5.796875 -6.796875 C 6.648438 -6.609375 7.351562 -6.410156 7.90625 -6.203125 C 8.46875 -5.992188 8.953125 -5.664062 9.359375 -5.21875 C 9.773438 -4.769531 9.984375 -4.15625 9.984375 -3.375 C 9.984375 -2.707031 9.796875 -2.101562 9.421875 -1.5625 C 9.046875 -1.019531 8.484375 -0.585938 7.734375 -0.265625 C 6.992188 0.0546875 6.09375 0.21875 5.03125 0.21875 Z M 5.03125 0.21875 "/></g></g></g><g fill="#000000" fill-opacity="1"><g transform="translate(59.677197, 115.589035)"><g><path d="M 11.734375 -11.15625 L 11.734375 0 L 8.578125 0 L 8.578125 -4.34375 L 4.265625 -4.34375 L 4.265625 0 L 1.109375 0 L 1.109375 -11.15625 L 4.265625 -11.15625 L 4.265625 -6.96875 L 8.578125 -6.96875 L 8.578125 -11.15625 Z M 11.734375 -11.15625 "/></g></g></g><g fill="#000000" fill-opacity="1"><g transform="translate(72.526541, 115.589035)"><g><path d="M 6.734375 0.21875 C 5.554688 0.21875 4.5 -0.03125 3.5625 -0.53125 C 2.625 -1.03125 1.882812 -1.71875 1.34375 -2.59375 C 0.8125 -3.476562 0.546875 -4.472656 0.546875 -5.578125 C 0.546875 -6.679688 0.8125 -7.671875 1.34375 -8.546875 C 1.882812 -9.429688 2.625 -10.125 3.5625 -10.625 C 4.5 -11.125 5.554688 -11.375 6.734375 -11.375 C 7.921875 -11.375 8.984375 -11.125 9.921875 -10.625 C 10.859375 -10.125 11.59375 -9.429688 12.125 -8.546875 C 12.664062 -7.671875 12.9375 -6.679688 12.9375 -5.578125 C 12.9375 -4.472656 12.664062 -3.476562 12.125 -2.59375 C 11.59375 -1.71875 10.859375 -1.03125 9.921875 -0.53125 C 8.984375 -0.03125 7.921875 0.21875 6.734375 0.21875 Z M 6.734375 -2.390625 C 7.304688 -2.390625 7.816406 -2.519531 8.265625 -2.78125 C 8.722656 -3.050781 9.082031 -3.425781 9.34375 -3.90625 C 9.613281 -4.394531 9.75 -4.953125 9.75 -5.578125 C 9.75 -6.203125 9.613281 -6.753906 9.34375 -7.234375 C 9.082031 -7.722656 8.722656 -8.097656 8.265625 -8.359375 C 7.816406 -8.628906 7.304688 -8.765625 6.734375 -8.765625 C 6.171875 -8.765625 5.660156 -8.628906 5.203125 -8.359375 C 4.753906 -8.097656 4.394531 -7.722656 4.125 -7.234375 C 3.863281 -6.753906 3.734375 -6.203125 3.734375 -5.578125 C 3.734375 -4.953125 3.863281 -4.394531 4.125 -3.90625 C 4.394531 -3.425781 4.753906 -3.050781 5.203125 -2.78125 C 5.660156 -2.519531 6.171875 -2.390625 6.734375 -2.390625 Z M 6.734375 -2.390625 "/></g></g></g><g fill="#000000" fill-opacity="1"><g transform="translate(86.013575, 115.589035)"><g><path d="M 6 -2.96875 L 4.265625 -2.96875 L 4.265625 0 L 1.109375 0 L 1.109375 -11.15625 L 6.21875 -11.15625 C 7.226562 -11.15625 8.101562 -10.988281 8.84375 -10.65625 C 9.59375 -10.320312 10.164062 -9.84375 10.5625 -9.21875 C 10.96875 -8.59375 11.171875 -7.863281 11.171875 -7.03125 C 11.171875 -6.21875 10.984375 -5.507812 10.609375 -4.90625 C 10.234375 -4.3125 9.691406 -3.84375 8.984375 -3.5 L 11.390625 0 L 8.015625 0 Z M 7.984375 -7.03125 C 7.984375 -7.550781 7.816406 -7.953125 7.484375 -8.234375 C 7.160156 -8.523438 6.675781 -8.671875 6.03125 -8.671875 L 4.265625 -8.671875 L 4.265625 -5.40625 L 6.03125 -5.40625 C 6.675781 -5.40625 7.160156 -5.546875 7.484375 -5.828125 C 7.816406 -6.109375 7.984375 -6.507812 7.984375 -7.03125 Z M 7.984375 -7.03125 "/></g></g></g><g fill="#000000" fill-opacity="1"><g transform="translate(97.810745, 115.589035)"><g><path d="M 3.484375 -8.65625 L 0.0625 -8.65625 L 0.0625 -11.15625 L 10.0625 -11.15625 L 10.0625 -8.65625 L 6.640625 -8.65625 L 6.640625 0 L 3.484375 0 Z M 3.484375 -8.65625 "/></g></g></g><g fill="#000000" fill-opacity="1"><g transform="translate(107.933987, 115.589035)"><g><path d="M 1.109375 -11.15625 L 4.265625 -11.15625 L 4.265625 0 L 1.109375 0 Z M 1.109375 -11.15625 "/></g></g></g><g fill="#000000" fill-opacity="1"><g transform="translate(113.338369, 115.589035)"><g><path d="M 4.265625 -8.71875 L 4.265625 -6.265625 L 9.203125 -6.265625 L 9.203125 -3.828125 L 4.265625 -3.828125 L 4.265625 0 L 1.109375 0 L 1.109375 -11.15625 L 9.859375 -11.15625 L 9.859375 -8.71875 Z M 4.265625 -8.71875 "/></g></g></g><g fill="#000000" fill-opacity="1"><g transform="translate(123.573213, 115.589035)"><g><path d="M 7.09375 -4 L 7.09375 0 L 3.9375 0 L 3.9375 -4.046875 L -0.3125 -11.15625 L 3.015625 -11.15625 L 5.65625 -6.71875 L 8.296875 -11.15625 L 11.359375 -11.15625 Z M 7.09375 -4 "/></g></g></g><g clip-path="url(#0ca0afebb9)"><path stroke-linecap="butt" transform="matrix(0.528538, -0.528538, 0.528538, 0.528538, 5.320545, 84.933061)" fill="none" stroke-linejoin="miter" d="M 0.00297106 1.999459 L 159.999775 2.003154 " stroke="#000000" stroke-width="4" stroke-opacity="1" stroke-miterlimit="4"/></g><g clip-path="url(#c7c81ac2e1)"><path stroke-linecap="butt" transform="matrix(0.528538, -0.528538, 0.528538, 0.528538, 92.000841, 217.877494)" fill="none" stroke-linejoin="miter" d="M 0.00156435 1.999715 L 160.002063 1.999715 " stroke="#000000" stroke-width="4" stroke-opacity="1" stroke-miterlimit="4"/></g></svg>